# xmcd CD database file
#
# Track frame offsets:
#	150
#	22094
#	46803
#	66054
#	97769
#	124258
#	147581
#	177321
#	195697
#	216437
#	237816
#	258620
#	275815
#	300150
#
# Disc length: 4352 seconds
#
# Revision: 0
# Processed by: cddbd v1.5.2PL0 Copyright (c) Steve Scherf et al.
# Submitted via: CDex 1.70beta3
#
DISCID=cf10fe0e
DTITLE=ニューヨーク・ジャズ・トリオ - ピアノ・トリオ・ジャズ
DYEAR=2009
DGENRE=Jazz
TTITLE0=枯葉
TTITLE1=オール・オブ・ミー
TTITLE2=恋人よ、我に帰れ
TTITLE3=ラウンド・ミッドナイト
TTITLE4=サマータイム
TTITLE5=チュニジアの夜
TTITLE6=ウィスパー・ノット
TTITLE7=ソング・フォー・マイ・ファーザー
TTITLE8=ザ・サイドワインダー
TTITLE9=ストレート・ノー・チェイサー
TTITLE10=マイ・ファニー・ヴァレンタイン
TTITLE11=バードランドの子守唄
TTITLE12=煙が目にしみる
TTITLE13=あなたと夜と音楽と
EXTD=YEAR: 2009
EXTT0=
EXTT1=
EXTT2=
EXTT3=
EXTT4=
EXTT5=
EXTT6=
EXTT7=
EXTT8=
EXTT9=
EXTT10=
EXTT11=
EXTT12=
EXTT13=
PLAYORDER=
